REM Generated by IcecastMetadataRecorder
REM 2020-07-29T21:16:11.222Z
TITLE "isics-all"
FILE "isics-all.mp3" WAVE
  TRACK 1 AUDIO
    TITLE "2020-07-29T21:36:05.430Z TO:7300 Department of Transportation - District 1 Highway Helper - Des Moines Area FROM:14966"
    INDEX 01 19:54:15
  TRACK 2 AUDIO
    TITLE "2020-07-29T21:36:07.542Z TO:18501 Boone County Law 1 FROM:800408"
    INDEX 01 19:56:24
  TRACK 3 AUDIO
    TITLE "2020-07-29T21:36:15.926Z TO:7300 Department of Transportation - District 1 Highway Helper - Des Moines Area FROM:14966"
    INDEX 01 20:04:52
  TRACK 4 AUDIO
    TITLE "2020-07-29T21:36:20.822Z TO:5105 Department of Public Safety - Area B Law 5B - DPS District #5 + #6 FROM:11098"
    INDEX 01 20:09:44
  TRACK 5 AUDIO
    TITLE "2020-07-29T21:36:26.422Z TO:18501 Boone County Law 1 FROM:UNKNOWN"
    INDEX 01 20:15:15
  TRACK 6 AUDIO
    TITLE "2020-07-29T21:36:32.022Z TO:1101 Polk County - Westcom Law Enforcement 1 FROM:1362"
    INDEX 01 20:20:59
  TRACK 7 AUDIO
    TITLE "2020-07-29T21:36:34.838Z TO:7300 Department of Transportation - District 1 Highway Helper - Des Moines Area FROM:14966"
    INDEX 01 20:23:46
  TRACK 8 AUDIO
    TITLE "2020-07-29T21:36:37.622Z TO:5105 Department of Public Safety - Area B Law 5B - DPS District #5 + #6 FROM:10971"
    INDEX 01 20:26:30
  TRACK 9 AUDIO
    TITLE "2020-07-29T21:36:41.142Z TO:1101 Polk County - Westcom Law Enforcement 1 FROM:1004"
    INDEX 01 20:29:68
  TRACK 10 AUDIO
    TITLE "END"
    INDEX 01 20:32:00